<?xml version="1.0" encoding="UTF-8" standalone="no"?>
<svg
   xmlns:dc="http://purl.org/dc/elements/1.1/"
   xmlns:cc="http://creativecommons.org/ns#"
   xmlns:rdf="http://www.w3.org/1999/02/22-rdf-syntax-ns#"
   xmlns:svg="http://www.w3.org/2000/svg"
   xmlns="http://www.w3.org/2000/svg"
   xmlns:sodipodi="http://sodipodi.sourceforge.net/DTD/sodipodi-0.dtd"
   xmlns:inkscape="http://www.inkscape.org/namespaces/inkscape"
   width="210mm"
   height="297mm"
   viewBox="0 0 210 297"
   version="1.1"
   id="svg8"
   inkscape:version="1.0.1 (3bc2e813f5, 2020-09-07)"
   sodipodi:docname="idk.svg">
  <defs
     id="defs2" />
  <sodipodi:namedview
     id="base"
     pagecolor="#ffffff"
     bordercolor="#666666"
     borderopacity="1.0"
     inkscape:pageopacity="0.0"
     inkscape:pageshadow="2"
     inkscape:zoom="0.49497475"
     inkscape:cx="401.20361"
     inkscape:cy="846.03356"
     inkscape:document-units="mm"
     inkscape:current-layer="layer1"
     inkscape:document-rotation="0"
     showgrid="false"
     inkscape:window-width="1346"
     inkscape:window-height="1198"
     inkscape:window-x="104"
     inkscape:window-y="104"
     inkscape:window-maximized="0" />
  <metadata
     id="metadata5">
    <rdf:RDF>
      <cc:Work
         rdf:about="">
        <dc:format>image/svg+xml</dc:format>
        <dc:type
           rdf:resource="http://purl.org/dc/dcmitype/StillImage" />
        <dc:title></dc:title>
      </cc:Work>
    </rdf:RDF>
  </metadata>
  <g
     inkscape:label="Layer 1"
     inkscape:groupmode="layer"
     id="layer1">
    <path
       id="path892"
       style="fill:#de8787;stroke:#000000;stroke-width:1.72082;stroke-linecap:round;stroke-linejoin:round;stroke-miterlimit:4;stroke-dasharray:none"
       d="m 95.315665,133.03138 c -11.8673,-20.7422 -31.349013,1.74654 -38.373948,-0.18484 -7.420974,-2.04026 -15.630415,-1.16848 -22.761353,3.08679 -11.610907,6.9286 -16.682625,20.63258 -13.184329,33.05354 a 22.11457,22.11457 0 0 1 10.445328,-22.83505 22.11457,22.11457 0 0 1 30.322709,7.65823 22.11457,22.11457 0 0 1 -7.658225,30.32272 22.11457,22.11457 0 0 1 -24.055589,-0.90306 c 9.285415,8.01669 23.015279,9.60322 34.127147,2.97241 7.223076,-4.31025 11.916149,-11.24259 13.58961,-18.85701 1.542609,-7.01899 29.384135,-13.62713 17.54865,-34.31373 z m -65.265407,50.19833 c -2.314237,-1.99803 -4.353543,-4.39411 -6.006165,-7.16357 -1.354833,-2.27042 -2.363992,-4.65046 -3.048058,-7.07927 a 22.11457,22.11457 0 0 0 2.787093,7.48766 22.11457,22.11457 0 0 0 6.26713,6.75518 z m 57.406436,-44.75129 c 3.067934,5.14123 1.387656,11.79601 -3.753567,14.86395 -5.141234,3.06795 -11.796322,1.38715 -14.864265,-3.75407 -3.067943,-5.14123 -1.387146,-11.79632 3.754089,-14.86427 5.141223,-3.06794 11.7958,-1.38684 14.863743,3.75439 z" />
    <path
       id="path892-7"
       style="fill:#de8787;stroke:#000000;stroke-width:1.75846;stroke-linecap:round;stroke-linejoin:round;stroke-miterlimit:4;stroke-dasharray:none"
       d="m 82.381387,200.20916 c -16.352169,-18.13658 -30.924761,8.54814 -38.358761,8.14426 -7.853101,-0.42663 -15.861489,2.22569 -22.058564,8.02255 -10.090363,9.43871 -12.1804165,24.22371 -5.991251,35.86748 a 22.598314,22.598314 0 0 1 5.474044,-25.06922 22.598314,22.598314 0 0 1 31.941196,1.06582 22.598314,22.598314 0 0 1 -1.065824,31.9412 22.598314,22.598314 0 0 1 -24.216923,4.31935 c 11.011994,5.98979 25.06643,4.59407 34.72312,-4.43897 6.277143,-5.87176 9.458802,-13.81271 9.4772,-21.77937 0.01696,-7.34369 26.3841,-19.98515 10.075763,-38.0731 z M 28.105304,264.5006 c -2.744546,-1.49285 -5.300988,-3.44287 -7.552317,-5.84962 -1.845664,-1.9731 -3.369946,-4.13068 -4.580176,-6.40753 a 22.598314,22.598314 0 0 0 4.408221,6.87196 22.598314,22.598314 0 0 0 7.724272,5.38519 z m 47.610678,-57.14651 c 4.17941,4.46796 3.94592,11.47783 -0.522018,15.65722 -4.467938,4.1794 -11.478226,3.94547 -15.657627,-0.52248 -4.179392,-4.46794 -3.945471,-11.47823 0.522467,-15.65762 4.467937,-4.17939 11.477786,-3.94506 15.657178,0.52288 z" />
    <path
       id="path892-7-0"
       style="fill:#de8787;stroke:#000000;stroke-width:2.08154;stroke-linecap:round;stroke-linejoin:round;stroke-miterlimit:4;stroke-dasharray:none"
       d="m 180.00592,178.44051 c 23.21289,-17.22623 -6.59014,-37.40308 -5.27706,-46.11751 1.38713,-9.20572 -0.83638,-18.94115 -6.96927,-26.89634 C 157.77376,92.473656 140.5871,88.345801 126.16958,94.32757 a 26.750226,26.750226 0 0 1 28.92405,9.27358 26.750226,26.750226 0 0 1 -4.85301,37.51812 26.750226,26.750226 0 0 1 -37.51813,-4.85301 26.750226,26.750226 0 0 1 -2.36252,-29.02262 c -8.29825,12.30152 -8.23635,29.01985 1.32031,41.41614 6.21212,8.05798 15.2111,12.70139 24.59661,13.62023 8.65157,0.847 20.57836,33.34056 43.72903,16.1605 z m -69.64595,-71.19687 c 2.0682,-3.06595 4.65391,-5.85874 7.74346,-8.240572 2.53287,-1.952647 5.24693,-3.505823 8.06615,-4.675498 a 26.750226,26.750226 0 0 0 -8.59406,4.420565 26.750226,26.750226 0 0 0 -7.21555,8.495505 z m 61.9773,62.538 c -5.73552,4.42168 -13.96936,3.35712 -18.39101,-2.37836 -4.42167,-5.73551 -3.35656,-13.96979 2.37896,-18.39146 5.73549,-4.42165 13.96978,-3.35654 18.39144,2.37896 4.42165,5.73549 3.35611,13.96921 -2.37939,18.39086 z" />
    <path
       id="path892-7-9"
       style="fill:#de8787;stroke:#000000;stroke-width:1.75846;stroke-linecap:round;stroke-linejoin:round;stroke-miterlimit:4;stroke-dasharray:none"
       d="m 90.159281,168.51975 c -18.353688,16.10811 8.133694,31.03634 7.630428,38.46427 -0.531655,7.84669 2.013304,15.88984 7.726751,22.16391 9.30289,10.21571 24.05861,12.50335 35.78413,6.47049 a 22.598314,22.598314 0 0 1 -24.99375,-5.8089 22.598314,22.598314 0 0 1 1.49298,-31.92408 22.598314,22.598314 0 0 1 31.92409,1.49299 22.598314,22.598314 0 0 1 3.99503,24.27254 c 6.13656,-10.93089 4.92896,-25.00273 -3.9741,-34.77938 -5.78726,-6.35513 -13.68494,-9.64273 -21.65065,-9.76768 -7.34281,-0.11519 -19.63042,-26.64908 -37.934909,-10.58416 z m 63.559659,55.13122 c -1.52944,2.72434 -3.51346,5.25446 -5.95013,7.4734 -1.9976,1.8191 -4.17538,3.31438 -6.46822,4.49405 a 22.598314,22.598314 0 0 0 6.93032,-4.31591 22.598314,22.598314 0 0 0 5.48803,-7.65154 z M 97.214413,175.28014 c 4.523467,-4.11927 11.529577,-3.79205 15.648837,0.7314 4.11925,4.52344 3.79157,11.52999 -0.73188,15.64925 -4.52345,4.11924 -11.52998,3.79157 -15.649235,-0.73187 -4.119252,-4.52344 -3.791167,-11.52953 0.732278,-15.64878 z" />
    <path
       id="path892-7-9-8"
       style="fill:#de8787;stroke:#000000;stroke-width:1.75846;stroke-linecap:round;stroke-linejoin:round;stroke-miterlimit:4;stroke-dasharray:none"
       d="m 31.656413,114.39829 c 11.721038,21.42303 32.062938,-1.17433 39.202634,0.93563 7.54223,2.22893 15.946682,1.49802 23.315091,-2.71077 C 106.17173,105.7702 111.62014,91.867717 108.28767,79.109274 A 22.598314,22.598314 0 0 1 97.171419,102.23631 22.598314,22.598314 0 0 1 66.340043,93.821894 22.598314,22.598314 0 0 1 74.754485,62.990518 22.598314,22.598314 0 0 1 99.314241,64.38131 C 89.983453,56.010049 75.986672,54.121891 64.504744,60.680298 57.04114,64.943461 52.111386,71.934836 50.253447,79.681842 48.540789,86.823054 19.9668,93.03269 31.656413,114.39829 Z M 99.314241,64.38131 c 2.325539,2.0864 4.362469,4.574137 5.997039,7.435814 1.34004,2.346029 2.32476,4.797335 2.97639,7.29215 A 22.598314,22.598314 0 0 0 105.58584,71.404956 22.598314,22.598314 0 0 0 99.314241,64.38131 Z M 39.79186,108.98606 c -3.034449,-5.31247 -1.188221,-12.07887 4.124218,-15.1133 5.312428,-3.034433 12.07915,-1.187673 15.11359,4.12478 3.03442,5.31244 1.187671,12.07915 -4.124757,15.11358 -5.312449,3.03443 -12.078631,1.18737 -15.113051,-4.12506 z" />
  </g>
</svg>
